<?xml version="1.0" encoding="UTF-8"?>
<svg xmlns="http://www.w3.org/2000/svg" xmlns:xlink="http://www.w3.org/1999/xlink" viewBox="0 0 1844.86 1661.58">
  <defs>
    <style>
      .cls-1 {
        fill: #f24e1e;
      }

      .cls-1, .cls-2, .cls-3, .cls-4, .cls-5, .cls-6, .cls-7, .cls-8, .cls-9, .cls-10, .cls-11, .cls-12, .cls-13, .cls-14, .cls-15, .cls-16, .cls-17, .cls-18, .cls-19, .cls-20, .cls-21, .cls-22, .cls-23, .cls-24, .cls-25, .cls-26, .cls-27, .cls-28, .cls-29, .cls-30, .cls-31, .cls-32, .cls-33, .cls-34 {
        stroke-width: 0px;
      }

      .cls-2 {
        fill: #f2abaa;
      }

      .cls-3 {
        fill: #000058;
      }

      .cls-35 {
        clip-path: url(#clippath);
      }

      .cls-4 {
        fill: none;
      }

      .cls-5 {
        fill: #9999f9;
      }

      .cls-6 {
        fill: #ff7262;
      }

      .cls-36 {
        opacity: .25;
      }

      .cls-36, .cls-23 {
        mix-blend-mode: overlay;
      }

      .cls-7 {
        fill: #5e2013;
      }

      .cls-8 {
        fill: #774b30;
      }

      .cls-9 {
        fill: #f2a032;
      }

      .cls-10 {
        fill: #430c1f;
      }

      .cls-11 {
        fill: #663810;
      }

      .cls-12 {
        fill: #fff9f9;
      }

      .cls-13 {
        fill: #000b1d;
      }

      .cls-14 {
        fill: #000;
      }

      .cls-15 {
        fill: #8b4f2f;
      }

      .cls-16 {
        fill: #a259ff;
      }

      .cls-17 {
        fill: #1f9cf0;
      }

      .cls-18 {
        fill: #cc8259;
      }

      .cls-19 {
        fill: #001e36;
      }

      .cls-20 {
        fill: #ffb6e2;
      }

      .cls-21 {
        fill: #ec4e68;
      }

      .cls-22 {
        fill: #1abcfe;
      }

      .cls-23 {
        fill: url(#Namnlös_övertoning_2);
        fill-rule: evenodd;
      }

      .cls-23, .cls-37 {
        isolation: isolate;
      }

      .cls-24 {
        fill: #683613;
      }

      .cls-25 {
        fill: #ff82c6;
      }

      .cls-26 {
        fill: #6e3a13;
      }

      .cls-27 {
        fill: #2e0501;
      }

      .cls-28 {
        fill: #0065a9;
      }

      .cls-29 {
        fill: #82502d;
      }

      .cls-30 {
        fill: #fffcfd;
      }

      .cls-31 {
        fill: #0acf83;
      }

      .cls-32 {
        fill: #fff;
      }

      .cls-33 {
        fill: #31a8fe;
      }

      .cls-34 {
        fill: #007acc;
      }
    </style>
    <clipPath id="clippath">
      <rect class="cls-4" x="319.65" y="79.36" width="118.98" height="118.98"/>
    </clipPath>
    <linearGradient id="Namnlös_övertoning_2" data-name="Namnlös övertoning 2" x1="1459.22" y1="283.27" x2="1459.22" y2="201.17" gradientTransform="translate(-41.93 642.23) rotate(-24.61)" gradientUnits="userSpaceOnUse">
      <stop offset="0" stop-color="#fff"/>
      <stop offset="1" stop-color="#fff" stop-opacity="0"/>
    </linearGradient>
  </defs>
  <g class="cls-37">
    <g id="_älg" data-name="älg">
      <g id="Lager_1-2" data-name="Lager 1">
        <g id="_älg_röd" data-name=" älg röd">
          <g id="_älg_rätt_vänd" data-name=" älg rätt vänd">
            <path id="hals" class="cls-15" d="M833.36,1114.18c5.08-24.35,8.57-66.09,8.57-86.96s2.32-82.32,0-98.55c-2.32-16.23-8.57-45.18-8.57-45.18l364.5,53.87-60.29,140.88s-2.32,13.91,0,35.94c2.32,22.03-146.4,195.94-146.4,195.94l-157.81-195.94h0Z"/>
            <g id="tröja">
              <path class="cls-20" d="M806.61,1140.97c-18.82,4.32-190.2,68.21-193.96,76.48-3.76,8.27,23.3,164.62,42.85,209.72,19.55,45.1,104.85,181.16,129.1,194.68,24.24,13.53,22.02-480.88,22.02-480.88h0Z"/>
              <path class="cls-25" d="M837.72,1107.56s-113.44,121.05-113.92,126.94c-.49,5.89,81.03,52.05,74.15,60.89-6.87,8.84-72.68-43.21-78.08-40.76s62.82,402.63,62.82,402.63l66.92.38-11.89-550.08"/>
              <path class="cls-20" d="M1164.37,1140.97c18.82,4.32,190.2,68.21,193.96,76.48s-23.3,164.62-42.85,209.72c-19.55,45.1-104.85,181.16-129.1,194.68-24.24,13.53-22.02-480.88-22.02-480.88h0Z"/>
              <path class="cls-25" d="M1133.26,1107.56s113.44,121.05,113.92,126.94c.49,5.89-81.03,52.05-74.15,60.89,6.87,8.84,72.68-43.21,78.08-40.76,5.4,2.45-63.56,406.95-63.56,406.95l-66.18-.12,11.89-553.9"/>
              <path class="cls-20" d="M833.36,1118.33l16.26,539.3,280.28,3.94,7.07-543.24s-126.25,122.99-145.71,125.71c-19.46,2.72-157.9-125.71-157.9-125.71h0Z"/>
              <path class="cls-12" d="M984.7,1641.35s81.09-193.79,103.53-257.47c22.44-63.68,46.31-149.08,46.31-149.08l4.34-117.96s-133.16,132.43-150.53,132.43-155-132.43-155-132.43l5.2,108.55s42.7,187.43,58.62,240.26c15.92,52.83,87.53,175.69,87.53,175.69h0Z"/>
              <path class="cls-25" d="M1084.06,1179.33c13.58,1.05,19.8,15.84,20.08,39.88.28,24.04,3.68,52.31,3.4,59.11-.28,6.8,1.98,28.29-16.69,31.41-18.67,3.11-49.5-8.77-56.57-13.01-7.07-4.25-34.79-16.97-34.79-16.97l-1.41-42.71s27.15-18.95,32.53-23.76c5.37-4.81,25.17-23.76,30.55-26.87,5.37-3.11,15.56-7.64,22.91-7.07h0Z"/>
              <path class="cls-25" d="M961.93,1231.79s-46.44-45.18-63.38-46.44c-16.95-1.26-23.85.94-27.61,10.98-3.76,10.04-1.88,45.18-2.83,53.65s-6.27,43.62,4.39,54.28c10.67,10.67,16.95,15.06,27.93,13.81,10.98-1.26,29.81-12.86,36.08-16,6.27-3.14,32.63-16.32,32.63-16.32l-7.22-53.97h0Z"/>
              <path class="cls-20" d="M982.59,1224.98c6.82-.23,14.6-.22,20.46-.16,5.09.05,9.15,4.2,9.15,9.29v49.53c0,5.13-4.16,9.29-9.29,9.29h-34.86c-5.01,0-9.12-3.98-9.29-9l-1.58-49.49c-.17-5.27,4.08-9.62,9.36-9.59l16.04.12h0Z"/>
            </g>
            <g id="horn_och_blommor" data-name="horn och blommor">
              <g id="horn">
                <path class="cls-11" d="M381.7,59.36c20.35,2.72,10.07,135.06,15.43,165.65,5.37,30.59,45.07,153.79,45.07,153.79l-131.85-43.42s10.94-139.46,17.92-173.19c6.99-33.72,21.87-107.04,53.42-102.83h0Z"/>
                <path class="cls-15" d="M910.29,604.25c-34.42-14.75-262.96-103.68-302.55-273.8-39.59-170.12,60.07-265.36,21.47-303.69-38.6-38.32-107.89,89.12-121.01,149.68-13.11,60.57,20.09,167.12,7.33,185.12-12.76,18-181.17-35.76-248.21-138.09C200.29,121.13,195.82,20.62,157.84,11.54c-37.99-9.1-44.76,104.78-24.6,147.28,20.16,42.49,102.02,130.92,89.28,154.05-12.74,23.12-101.72-48.87-128.54-91.85-26.82-42.98-41.43-112.68-70.65-106.93-29.21,5.75-9.36,106.2,38.56,168.08,47.92,61.88,194.14,219.32,219.82,229.48,25.68,10.17,281.16,32.83,333.01,46.49,51.85,13.66,290.57,82.04,290.57,82.04l5-35.92h0Z"/>
                <path class="cls-26" d="M1527.53,120.47c22.36-8.57,41.39,93.65,35.6,148.29-5.79,54.65-36.07,160.25-36.07,160.25l-127.73,85.84-45.23.71s77.01-95.69,99.02-134.63c22.01-38.93,48.36-140.48,53.26-167.18,4.9-26.69-11.92-80.62,21.16-93.3h0Z"/>
                <path class="cls-15" d="M1100.63,581.99c83.86-45.06,205.5-144.7,238.14-202.07,32.64-57.38,2.16-220.83,23.97-225.55,21.8-4.72,69.8,80.55,66.57,153.51-3.23,72.95-37.71,105.58-19.87,127.17,17.84,21.59,143.26-69.33,183.25-122.45,39.99-53.12,98.54-224.64,124.78-225.06,26.24-.41,1.67,106.42-25.09,166.62-26.76,60.2-98.73,119.66-85.34,136.95s95.09-59.82,124.69-85.07c29.59-25.25,67.74-103.13,92.57-100.61,24.83,2.52-8.35,118.24-70.21,171.71-61.86,53.47-118.88,136.02-162.41,149.82-43.53,13.81-187.91,11.7-253.31,25.86-65.39,14.15-238.16,62.07-238.16,62.07l.41-32.89h.01Z"/>
              </g>
            </g>
            <g id="ansiktetet">
              <g id="_öron" data-name=" öron">
                <path class="cls-26" d="M877.11,534.26c12.48-24.06,12.48-61.49,9.8-85.56s-78.43-92.49-91.8-97.5c-13.37-5-28.52-4.11-32.97,11.04-4.45,15.15-18.71,90.01-9.8,116.75,8.91,26.74,85.47,123.56,85.47,123.56l39.3-68.3Z"/>
                <path class="cls-26" d="M1057.71,515.57c7.79-8.64,32.4-40.59,34.2-59.42,1.79-18.83,8.97-60.97,21.52-73.53,12.56-12.56,52.01-38.61,65.46-31.41,13.45,7.21,32.28,50.25,29.59,74.45-2.69,24.21-5.48,52.77-4.48,69.94,1,17.17-50.84,72.15-73.84,69.26-23.01-2.9-72.45-49.29-72.45-49.29h0Z"/>
                <path class="cls-2" d="M793.48,405.87c20.49-6.3,52.8,40.2,55.96,56.75,3.15,16.55,5.52,56.75,5.52,66.2s-50.44-32.31-56.75-44.92c-6.3-12.61-4.73-78.03-4.73-78.03Z"/>
                <path class="cls-2" d="M1124.58,511.33c-3.07-12.33-1.04-69.9,0-80.58s22.42-26.31,26.54-27.13,14.8,47.69,9.04,63.32c-5.76,15.63-35.58,44.4-35.58,44.4Z"/>
              </g>
              <path id="ansikte" class="cls-24" d="M868.42,530.17c-28.89,31.68-25.56,71.35-36.08,85.07-10.51,13.71-65.49,73.35-82.26,124.6-16.77,51.25,1.62,128.12,5.04,131.06,3.43,2.94,8.81-50.4,13.21-51.87,4.4-1.47,13.22,70.72,37.44,91.51,24.22,20.8-12.47-70.22,0-56.52,12.47,13.7,52.64,70.96,62.65,78.3,10.01,7.34-24.59,87.89,9.1,132.81,33.69,44.92,90.96,59.52,145.99,60.64,55.03,1.12,90.96,1.12,114.55-21.34,23.58-22.46,17.23-55.46,35.59-74.65,18.36-19.19,60.92-70.09,79.28-110.99,18.36-40.89,13.35-122.66-11.68-146.03-25.04-23.37-148.62-83.36-144.4-91.8,4.22-8.44,26.52-18.68,33.75-40.39,7.23-21.7,17.48-78.36,8.44-99.46-9.04-21.1-108.5-44-118.14-44s-25.05,9.73-25.05,9.73c0,0,56.19-32.92,53.53-37.24-2.66-4.32-46.88-.33-66.17,6.98-19.28,7.32-22.28,28.26-27.59,28.59-5.32.33-20.62-18.62-31.92-19.62-11.31-1-40.89,5.98-41.89,10.97-1,4.99,21.95,10.64,21.95,16.63s-35.31,17.02-35.31,17.02v-.02Z"/>
              <g id="MUN">
                <path class="cls-7" d="M861.93,768.39c22.97-15.14,91.41,35.61,134.28,57.04,42.87,21.43,49.98,144.58,82.79,146,32.8,1.42,124.65,1.88,109.66,30.11-15,28.22-42.22,59.41-65.7,79.34-23.47,19.93-111.38,29.09-136.83,15.92-25.45-13.17-93.73-27.41-90.6-79.48,3.13-52.07-33.6-248.93-33.6-248.93h0Z"/>
                <path class="cls-32" d="M931.12,933.82c11,16.49,28.86,70.78,63.91,86.59,35.05,15.81,71.47,13.74,80.4,13.06s42.6-19.93,42.6-19.93l-18.56,87.27-138.81-17.18-29.55-73.53v-76.28h0Z"/>
                <path class="cls-8" d="M972.05,781.72s-93.12-83.26-126.9-66.57c-33.79,16.69,15.24,106.39,20.45,135.6,5.22,29.2-27.77,179.45,11.92,214.37,39.7,34.92,46.49,55.82,157.06,61.02,110.56,5.2,108.96-24.81,113.68-34.86,4.72-10.04,18.79-46.52,38.61-61.13,19.82-14.6,57.37-19.82,53.19-28.16-4.17-8.35-2.44-15.33-35.28-8.55-32.85,6.77-61.43-8.41-71.26-8.41s-33.95.9-30.37,31.27c3.57,30.37,13.4,68.79-59.85,59.85-73.26-8.93-89.34-38.42-95.59-62.53-6.25-24.12-14.29-108.1-20.55-125.07-6.25-16.98-50.03-105.42-41.99-108.1,8.04-2.68,33.95,48.24,47.35,57.18,13.4,8.93,39.54,19.66,39.54,19.66v-75.55h-.01Z"/>
                <path class="cls-32" d="M969.52,937.36c-3.61,18.26,9.41,41.22,25.48,49.64,16.07,8.42,69.65,19.9,103.33,18.37,33.68-1.53,81.14-2.3,90.32-3.83,9.18-1.53,28.39-24.17,28.39-24.17v-16.39l-247.52-23.62h0Z"/>
              </g>
              <g id="näsa">
                <path class="cls-18" d="M1027.71,774.08s22.33-35.24,113.88-32.37c91.55,2.86,98.13,37.85,104.85,37.16,6.72-.69-1.73-15.7,17.52-10.7,19.24,5.01,31.4,35.76,23.53,81.53s-41.41,66.81-37.25,74.77c4.16,7.97,35.28,21.03,19.1,38.46-16.18,17.42-66.58,16.18-82.14,11.2-15.56-4.98-23.02-9.96-42.94-9.96s-78.4,29.87-96.45,29.25c-18.05-.62-75.91-23.65-86.49-80.27-10.58-56.62-3.73-97.08,6.22-120.72,9.96-23.65,13.07-33.6,30.49-33.6s29.68,15.25,29.68,15.25h0Z"/>
                <path class="cls-29" d="M1033.98,941.02c21.43-5.1,24.93-18.89,23.42-29.46-1.51-10.58-37.77-46.84-44.58-55.15-6.8-8.31-16.62-30.97-16.62-30.97,0,0-11.33,74.04,0,93.68,11.33,19.64,28.25,24.17,37.77,21.91h0Z"/>
              </g>
              <path class="cls-32" d="M1079.57,532.35c32.98-3.38,44,50.47,43.35,69.88-.65,19.41-22.65,71.82-39.47,67.29s-46.59-40.28-46.59-64.46,17.47-70.12,42.7-72.71h0Z"/>
              <g id="_öga" data-name=" öga">
                <path class="cls-32" d="M924.15,525.33c31.71-3.3,67.37,24.63,57.22,90.55-10.14,65.92-44.19,97.79-86.92,90.55-42.74-7.25-53.6-68.09-47.81-102.86,5.79-34.77,42.74-74.61,77.51-78.23h0Z"/>
              </g>
            </g>
          </g>
        </g>
      </g>
      <g id="propiler_1" data-name="propiler 1">
        <circle class="cls-14" cx="914.16" cy="642.83" r="51.63"/>
        <circle class="cls-30" cx="914.16" cy="637" r="20.95"/>
      </g>
      <g id="propiler_2" data-name="propiler 2">
        <ellipse class="cls-14" cx="1079.91" cy="616.25" rx="31.53" ry="36.86"/>
        <circle class="cls-30" cx="1076.7" cy="620.41" r="16.59"/>
      </g>
    </g>
    <g id="afterefekt">
      <path class="cls-3" d="M88.62,195.62l-73.92,22.75c-10.99,3.38-17.16,15.03-13.78,26.03l22.75,73.92c3.38,10.99,15.03,17.16,26.03,13.78l73.92-22.75c10.99-3.38,17.16-15.03,13.78-26.03l-22.75-73.92c-3.38-10.99-15.03-17.16-26.03-13.78Z"/>
      <path class="cls-5" d="M63.11,276.23l-15.75,4.85-.06,14.27c.07.41-.11.68-.56.82l-7.39,2.28c-.49.15-.74-.04-.75-.58l.87-47.94c.06-1.04-.16-2.46-.66-4.25-.09-.3.01-.49.31-.58l10.35-3.19c.3-.09.51-.02.63.21l30.67,42.85c.28.4.23.66-.16.78l-8.28,2.55c-.35.11-.64.03-.88-.22l-8.34-11.84ZM46.97,273.51l12.27-3.78c-.61-.94-1.85-2.78-3.71-5.49-1.86-2.72-3.59-5.26-5.18-7.63-1.59-2.37-2.82-4.26-3.69-5.67l-.07.02c.25,2.73.37,10.25.38,22.55Z"/>
      <path class="cls-5" d="M100.35,261.7l-13.53,4.16c1.02,3.14,2.67,5.36,4.96,6.65,2.29,1.29,5.16,1.41,8.61.35,3.15-.97,5.8-2.38,7.93-4.22.24-.29.41-.24.53.16l1.66,5.4c.11.35.05.69-.17,1.02-2.42,2.15-5.67,3.85-9.76,5.11-6.06,1.87-11.06,1.51-14.98-1.06-3.89-2.64-6.63-6.57-8.24-11.79s-1.59-10.41.25-14.97c1.84-4.56,5.32-7.63,10.44-9.2s8.97-1.11,12.26,1.17c3.34,2.26,5.63,5.42,6.88,9.46.62,2.02.96,3.48,1.02,4.38.06.36-.08.62-.41.77-1.22.59-3.7,1.46-7.45,2.62ZM85.07,260.17l9.76-3c2.12-.65,3.31-1.07,3.58-1.26-.01-.21-.09-.57-.24-1.06-.58-1.87-1.59-3.4-3.03-4.57-1.44-1.18-3.27-1.42-5.49-.74s-3.6,1.97-4.3,3.91-.79,4.18-.28,6.72Z"/>
    </g>
    <g id="figma">
      <g class="cls-35">
        <g>
          <path class="cls-13" d="M340.72,79.36h76.84c2.77,0,5.51.55,8.07,1.64,2.56,1.09,4.88,2.68,6.84,4.68,1.96,2.01,3.51,4.39,4.57,7.01,1.06,2.62,1.6,5.43,1.6,8.27v75.76c0,2.84-.54,5.65-1.6,8.27-1.06,2.62-2.61,5.01-4.57,7.01-1.96,2.01-4.28,3.6-6.84,4.68-2.56,1.08-5.3,1.64-8.07,1.64h-76.84c-2.77,0-5.51-.55-8.07-1.64-2.56-1.09-4.88-2.68-6.84-4.68-1.96-2.01-3.51-4.39-4.57-7.01-1.06-2.62-1.6-5.43-1.6-8.27v-75.76c0-2.84.54-5.65,1.6-8.27,1.06-2.62,2.61-5.01,4.57-7.01,1.96-2.01,4.28-3.6,6.84-4.68,2.56-1.09,5.3-1.64,8.07-1.64h0Z"/>
          <path class="cls-31" d="M367.73,175.14c6.85,0,12.39-5.55,12.39-12.39v-12.39h-12.39c-6.85,0-12.39,5.55-12.39,12.39s5.55,12.39,12.39,12.39Z"/>
          <path class="cls-16" d="M355.34,137.96c0-6.85,5.55-12.39,12.39-12.39h12.39v24.79h-12.39c-6.85,0-12.39-5.55-12.39-12.39Z"/>
          <path class="cls-1" d="M355.34,113.17c0-6.85,5.55-12.39,12.39-12.39h12.39v24.79h-12.39c-6.85,0-12.39-5.55-12.39-12.39Z"/>
          <path class="cls-6" d="M380.13,100.77h12.39c6.85,0,12.39,5.55,12.39,12.39s-5.55,12.39-12.39,12.39h-12.39v-24.79Z"/>
          <path class="cls-22" d="M404.92,137.96c0,6.85-5.55,12.39-12.39,12.39s-12.39-5.55-12.39-12.39,5.55-12.39,12.39-12.39,12.39,5.55,12.39,12.39Z"/>
        </g>
      </g>
    </g>
    <g id="pr">
      <path class="cls-3" d="M661.36,361.08l-69.5,33.92c-10.33,5.04-14.62,17.51-9.58,27.85l33.92,69.5c5.04,10.33,17.51,14.62,27.85,9.58l69.5-33.92c10.33-5.04,14.62-17.51,9.58-27.85l-33.92-69.5c-5.04-10.33-17.51-14.62-27.85-9.58Z"/>
      <path class="cls-5" d="M636.42,467.31l-21.9-44.87c-.16-.32-.1-.55.18-.69,2.93-1.55,7.09-3.63,12.49-6.27,6.14-3,11.34-3.79,15.6-2.37,4.29,1.35,7.46,4.13,9.51,8.34,2.49,5.09,2.57,9.81.26,14.15-2.29,4.27-6.16,7.73-11.6,10.39l-2.3,1.12c-.86.36-1.31.55-1.36.58l7.56,15.49c.16.32.05.58-.32.76l-7.39,3.61c-.33.16-.57.08-.73-.25ZM625.81,424.16l8.34,17.09c.7-.23,2.07-.84,4.11-1.84,2.93-1.43,5-3.27,6.2-5.52,1.18-2.3,1-5.02-.53-8.17-1.31-2.69-3.16-4.36-5.56-5.03-2.37-.73-5.07-.36-8.09,1.11-2.46,1.2-3.95,1.99-4.47,2.35Z"/>
      <path class="cls-5" d="M655.5,416.72l6.56-3.2c.37-.18.72-.12,1.04.18.82.74,1.71,1.97,2.66,3.69,1-4.79,3.71-8.26,8.13-10.42.33-.16.57-.08.73.25l3.42,7.01c.18.37.07.62-.32.76-4.16,1.74-6.84,4.34-8.03,7.79-.22.62-.15,1.28.19,1.97l10.34,21.18c.16.32.05.58-.32.76l-7.32,3.57c-.42.2-.72.12-.9-.25l-11.46-23.48c-1.83-3.75-3.46-6.8-4.89-9.14-.2-.3-.14-.53.18-.69Z"/>
    </g>
    <g id="me">
      <path class="cls-3" d="M674.15,80.08l-67.92-36.99c-10.1-5.5-22.74-1.77-28.24,8.33l-36.99,67.92c-5.5,10.1-1.77,22.74,8.33,28.24l67.92,36.99c10.1,5.5,22.74,1.77,28.24-8.33l36.99-67.92c5.5-10.1,1.77-22.74-8.33-28.24Z"/>
      <path class="cls-5" d="M584.68,69.82c.19-.25.45-.28.77-.11l11.33,6.17c.41.22.55.5.42.85-5.02,23.01-7.98,35.93-8.87,38.74l.07.04c1.73-1.88,6.53-6.7,14.39-14.47,7.94-7.79,12.56-12.35,13.88-13.69.31-.24.6-.29.87-.14l10.99,5.99c.32.17.42.41.32.7l-22.25,45.38c-.15.39-.43.47-.84.25l-7.94-4.32c-.36-.2-.46-.45-.28-.77,9.56-18.42,16.48-31.39,20.74-38.88l-.07-.04c-.91,1.03-11.63,11.92-32.14,32.67-.31.24-.62.28-.94.11l-6.65-3.62c-.45-.25-.61-.54-.49-.88,4.09-18.93,7.6-33.78,10.53-44.53l-.07-.04c-6.36,11.47-13.76,24.19-22.2,38.18-.17.32-.44.38-.8.18l-7.13-3.88c-.41-.22-.49-.5-.25-.84l26.59-43.01Z"/>
      <path class="cls-5" d="M641.73,139.69l-13.64-7.43c-1.46,2.79-1.81,5.48-1.05,8.07.83,2.57,2.87,4.74,6.13,6.51s6.33,2.71,9.34,2.88c.32.06.39.24.22.56l-2.78,5.1c-.22.41-.51.61-.85.59-3.57-.24-7.34-1.44-11.32-3.61-3.03-1.65-5.42-3.57-7.16-5.75-1.74-2.18-2.8-4.44-3.18-6.76-.38-2.32-.36-4.61.04-6.86.47-2.27,1.32-4.52,2.53-6.74,2.69-4.94,6.38-8.31,11.05-10.12,4.75-1.82,9.61-1.38,14.59,1.33,4.7,2.56,7.47,5.89,8.29,9.98.82,4.09.21,8.02-1.84,11.78-.77,1.41-1.56,2.65-2.38,3.73-.22.29-.5.38-.84.25-1.37-.51-3.74-1.69-7.14-3.53ZM630.97,126.96l9.64,5.25c2.13,1.16,3.35,1.77,3.67,1.82.14-.16.34-.46.59-.92.94-1.72,1.28-3.54,1.03-5.44-.21-1.88-1.42-3.42-3.64-4.63s-4.21-1.32-6.24-.49c-1.97.81-3.65,2.28-5.04,4.4Z"/>
    </g>
    <g id="ps">
      <path class="cls-19" d="M1803.03,385.48l-63.63-43.97c-9.46-6.54-22.43-4.17-28.97,5.29l-43.97,63.63c-6.54,9.46-4.17,22.43,5.29,28.97l63.63,43.97c9.46,6.54,22.43,4.17,28.97-5.29l43.97-63.63c6.54-9.46,4.17-22.43-5.29-28.97Z"/>
      <path class="cls-33" d="M1696.35,414.29l28.62-41.42c.2-.3.46-.34.75-.14,3.28,2.14,7.4,4.93,12.37,8.36,5.85,4.04,9.23,8.32,10.13,12.82.94,4.53.08,8.72-2.58,12.58-3.31,4.79-7.46,7.17-12.46,7.16-5-.02-10.07-1.8-15.2-5.34l-3.75-2.59-9.74,14.1c-.23.34-.52.39-.86.16l-7.06-4.88c-.34-.23-.41-.5-.2-.8ZM1729.23,383.98l-10.8,15.63c.54.5,1.88,1.49,4.05,2.98,2.84,1.96,5.56,2.93,8.14,2.91,2.66-.04,4.97-1.48,6.93-4.32,1.73-2.5,2.27-4.97,1.64-7.41-.59-2.41-2.35-4.63-5.28-6.65-.72-.5-1.46-.98-2.21-1.43l-1.72-1.19-.76-.53Z"/>
      <path class="cls-33" d="M1764.28,426.98c-1.35-3.12-3.32-5.58-5.91-7.37-1.48-1.03-2.78-1.51-3.88-1.46-1.06.08-1.85.5-2.38,1.27s-.7,1.65-.51,2.65c.21.96,1.01,2.48,2.39,4.56,2.58,3.79,4.05,6.93,4.4,9.42.42,2.48-.19,4.9-1.83,7.28-1.99,2.88-4.7,4.45-8.14,4.7-3.36.24-6.91-.93-10.64-3.51s-6.32-5.37-7.76-8.36c-.2-.26-.18-.56.06-.9l4.08-5.91c.12-.17.23-.25.35-.23.19,0,.29.08.32.22,1.35,3.94,3.6,6.99,6.74,9.16,1.48,1.03,2.78,1.55,3.9,1.57,1.19,0,2.07-.41,2.66-1.26.61-.89.81-1.85.58-2.88-.2-1.07-.98-2.62-2.35-4.63-2.49-3.66-3.9-6.7-4.23-9.12-.26-2.43.4-4.79,1.98-7.08,1.81-2.63,4.33-4.14,7.56-4.54,3.22-.4,6.68.67,10.37,3.22,3.44,2.37,5.76,4.67,6.99,6.89.12.27.04.62-.25,1.05l-3.64,5.27c-.35.51-.63.5-.84-.01Z"/>
    </g>
    <g id="ai">
      <path class="cls-27" d="M1639.66,149.28l-31.79,70.5c-4.73,10.48-.06,22.81,10.42,27.54l70.5,31.79c10.48,4.73,22.81.06,27.54-10.42l31.79-70.5c4.73-10.48.06-22.81-10.42-27.54l-70.5-31.79c-10.48-4.73-22.81-.06-27.54,10.42Z"/>
      <path class="cls-9" d="M1690.4,213.49l-7.36,16.32,10.55,9.66c.36.22.43.56.22,1.03l-3.33,7.39c-.21.47-.52.53-.93.17l-35.44-33.59c-.56-.65-1.79-1.45-3.68-2.42-.28-.13-.35-.36-.2-.68l4.57-10.13c.11-.23.31-.37.61-.4l53.5,4.48c.49.05.64.29.45.71l-3.74,8.3c-.15.33-.42.49-.81.48l-14.39-1.32ZM1677,224.89l5.71-12.66c-.75-.11-4.19-.48-10.32-1.1-6.16-.69-10.36-1.2-12.59-1.53l-.03.07c2.15,1.65,7.9,6.72,17.24,15.22Z"/>
      <path class="cls-9" d="M1710.87,200.96l-33.26-15c-.38-.17-.48-.44-.31-.82l3.52-7.81c.17-.38.44-.48.82-.31l33.33,15.03c.38.17.48.44.31.82l-3.49,7.74c-.19.42-.5.54-.92.35ZM1673.48,174.54c.47,1.23.38,2.57-.28,4.02s-1.6,2.41-2.83,2.87c-1.23.46-2.58.36-4.04-.3s-2.37-1.6-2.87-2.9c-.49-1.3-.42-2.65.21-4.05s1.59-2.33,2.87-2.77c1.28-.44,2.62-.34,4.04.3s2.43,1.6,2.9,2.83Z"/>
    </g>
    <g id="code">
      <path class="cls-13" d="M1325.94,216.65l69.86-32c2.52-1.16,5.24-1.79,8.02-1.87,2.78-.08,5.55.4,8.17,1.41,2.62,1.01,5.02,2.53,7.07,4.47,2.05,1.94,3.72,4.27,4.9,6.86l31.55,68.88c1.18,2.58,1.86,5.36,1.99,8.19.13,2.83-.29,5.64-1.23,8.28-.94,2.64-2.39,5.05-4.27,7.11-1.87,2.05-4.13,3.7-6.65,4.85l-69.86,32c-2.51,1.16-5.24,1.79-8.02,1.87-2.78.08-5.55-.4-8.17-1.41-2.62-1.01-5.02-2.53-7.07-4.48-2.05-1.94-3.72-4.27-4.9-6.86l-31.55-68.88c-1.18-2.58-1.86-5.36-1.99-8.19-.13-2.83.29-5.64,1.23-8.28.94-2.64,2.39-5.05,4.27-7.11,1.87-2.05,4.13-3.7,6.65-4.85h0Z"/>
      <path class="cls-28" d="M1407.03,209.35l-18.87-.36c-2.18-.04-4.16,1.3-4.92,3.35l-29.47,69.32c-.79,1.86.19,4.01,2.12,4.62l5.86,1.86c1.58.5,3.29-.19,4.07-1.65l39.77-74.15c1.33-2.49,4.94-2.37,6.11.19l-.08-.18c-.83-1.8-2.61-2.97-4.59-3.01Z"/>
      <path class="cls-34" d="M1433.98,268.18l-12.05,14.52c-1.39,1.68-3.7,2.3-5.75,1.54l-71.74-22.96c-1.93-.62-2.91-2.76-2.11-4.62l2.41-5.65c.65-1.52,2.29-2.37,3.91-2.01l82.12,18.32c2.76.61,5.02-2.19,3.85-4.76l.08.18c.83,1.8.55,3.92-.72,5.44Z"/>
      <path class="cls-17" d="M1421.93,282.7c-1.4,1.68-3.7,2.3-5.75,1.54,2.52.94,4.92-1.64,3.8-4.09l-31.16-68.02c-1.12-2.45-4.64-2.32-5.58.21.76-2.05,2.73-3.39,4.92-3.35l18.86.35c1.98.04,3.77,1.21,4.59,3.01l23.09,50.4c.83,1.8.55,3.92-.72,5.44l-12.05,14.51Z"/>
      <g class="cls-36">
        <path class="cls-23" d="M1418.24,284.57c1.39-.08,2.73-.73,3.66-1.85l12.04-14.51c1.27-1.52,1.55-3.64.72-5.44l-23.09-50.4c-.83-1.8-2.61-2.97-4.59-3.01l-18.85-.36c-1.91-.04-3.66.99-4.57,2.62-.13.23-.24.48-.34.73l-17.21,40.52-17.36-3.88c-1.62-.36-3.26.48-3.91,2l-2.41,5.65c-.79,1.86.19,4.01,2.11,4.62l15.84,5.07-6.5,15.31c-.79,1.86.19,4.01,2.12,4.62l5.85,1.87c1.58.5,3.29-.19,4.07-1.65l8.4-15.68,41.93,13.43c.68.25,1.39.35,2.09.31ZM1396.56,229.12l-14.64,27.31,30.24,6.75-15.6-34.06Z"/>
      </g>
    </g>
    <g id="id">
      <path class="cls-10" d="M1549.16,534.82l-37.84-67.45c-5.63-10.03-18.32-13.6-28.35-7.97l-67.45,37.84c-10.03,5.63-13.6,18.32-7.97,28.35l37.84,67.45c5.63,10.03,18.32,13.6,28.35,7.97l67.45-37.84c10.03-5.63,13.6-18.32,7.97-28.35Z"/>
      <path class="cls-21" d="M1491.01,505.27l-43.44,24.37c-.41.23-.71.16-.91-.2l-4.01-7.14c-.2-.36-.1-.66.3-.89l43.44-24.37c.36-.2.64-.12.85.24l4.04,7.21c.18.32.09.58-.27.78Z"/>
      <path class="cls-21" d="M1458.79,552.47c-2.85-5.08-3.71-9.93-2.57-14.56,1.13-4.63,4.47-8.5,10.01-11.61,5.04-2.83,10.1-3.52,15.18-2.08,5.07,1.45,9.14,4.89,12.19,10.33.76,1.36,1.31,2.6,1.65,3.73l14.59-8.19c.27-.15.48-.09.63.18l4.2,7.48c.13.23.06.42-.21.57l-40.46,22.7c-1.71.96-3.16,1.86-4.34,2.71-.24.2-.51.2-.8,0-4.1-2.88-7.45-6.64-10.05-11.26ZM1468.15,553.48l20.87-11.71c-.01-1.18-.45-2.55-1.32-4.09-1.55-2.77-3.78-4.47-6.68-5.1-2.9-.64-6.13.04-9.69,2.04-3.78,2.12-6.1,4.53-6.96,7.22-.83,2.73-.51,5.42.96,8.05.92,1.63,1.86,2.83,2.82,3.6Z"/>
    </g>
  </g>
</svg>