<?xml version="1.0" encoding="UTF-8"?>
<svg id="loga" xmlns="http://www.w3.org/2000/svg" viewBox="0 0 258.9 238.4">
  <defs>
    <style>
      .cls-1 {
        fill: #1d1d1b;
      }

      .cls-1, .cls-2, .cls-3 {
        stroke-width: 0px;
      }

      .cls-2 {
        fill: #e1db67;
      }

      .cls-3 {
        fill: #fcfae2;
      }
    </style>
  </defs>
  <circle class="cls-1" cx="127.83" cy="119.2" r="111.49"/>
  <path class="cls-2" d="m151.51,186.62c-1.99.52-6.32.67-8.49.08-4.69,5.57-14.56,10.94-15.04,11.2l-1.09-2c.07-.06,4.27-2.28,8.39-5.36-1.07-1.68-2-5.52-1.42-7.57.73-2.73,2.02-11.37,3.99-11.19,1.53.07,3.37,7.88,2.89,10.65-.22,1.19-.78,3.11-1.53,4.95,1.23-1.06,2.34-2.27,3.12-3.33.86-1.24,1.69-2.68,2.66-4.22-.02.13-.14.11-.14.11-1.41-.05-3.25-5.81-2.46-8.47.73-2.73,2.02-11.37,3.94-11.26,1.59.14,3.3,7.94,2.94,10.72-.2,1.07-.65,2.55-1.27,3.95.79-1.18,1.53-2.44,2.25-3.57.32-.47.56-.89.81-1.31.63-.95,1.2-1.84,1.74-2.61-1.38-.75-2.85-5.89-2.15-8.37.73-2.73,2.02-11.37,3.99-11.19,1.53.07,3.24,7.86,2.89,10.65-.18,1.39-.97,3.6-1.86,5.55,1.63-1.72,4.18-4.61,6.28-6.91-.06-.07.02-.13.02-.13.33-2.08,1.84-5.42,3.48-6.69,2.26-1.64,8.55-7.65,10.05-6.3,1.1.98-2.27,8.26-4.31,10.18-1.53,1.41-5.08,3.59-7.34,4.21-2.55,2.89-5.99,6.69-7.46,8.17l-.07.06c.4-.08.79-.16,1.11-.18,2.85-.15,11.48-1.82,11.94.1.39,1.53-6.38,5.74-9.21,6.22-1.85.41-5.62.25-7.94-.24-.88,1.37-1.71,2.8-2.59,4.17-.88,1.37-1.71,2.8-2.59,4.17.54-.19,1-.32,1.4-.4,2.81-.35,11.29-2.36,11.89-.54.46,1.47-6.04,6.04-8.82,6.72Z"/>
  <path class="cls-2" d="m112.02,85.31c-.87,2.66-3.85,7.73-6.13,9.78,2.95,9.45,1.86,24.69,1.81,25.43l-3.1-.21c-.01-.12.51-6.57,0-13.54-2.71,0-7.79-1.76-9.71-3.92-2.59-2.84-11.54-10.65-9.89-12.76,1.2-1.71,11.49,1.91,14.31,4.49,1.21,1.12,3,3.17,4.55,5.37-.32-2.19-.89-4.35-1.53-6.01-.79-1.9-1.83-3.89-2.89-6.14.13.11.02.24.02.24-1.09,1.57-9.03-.54-11.5-3.39-2.59-2.84-11.55-10.65-10.01-12.75,1.32-1.72,11.5,2.04,14.43,4.48,1.08,1.01,2.45,2.61,3.59,4.35-.77-1.78-1.67-3.54-2.44-5.19-.31-.71-.61-1.3-.91-1.89-.62-1.42-1.23-2.72-1.71-3.91-1.88,1.03-8.83-1.05-11.16-3.67-2.59-2.84-11.54-10.65-9.89-12.76,1.2-1.71,11.38,2.05,14.31,4.49,1.47,1.22,3.42,3.75,4.99,6.19-.78-3.13-2.21-8.17-3.32-12.25-.12.01-.13-.11-.13-.11-2.14-1.9-4.86-6.08-5.11-8.89-.22-3.79-2.5-15.4.14-16.13,1.92-.54,7.8,8.65,8.5,12.4.5,2.79.39,8.45-.56,11.49,1.44,5.04,3.28,11.76,3.9,14.54v.12c.21-.51.41-1.02.62-1.41,1.91-3.37,6.32-14.48,8.86-13.6,2.03.68,1.9,11.52.38,15.1-.89,2.42-3.83,6.62-6.09,8.92.92,2.01,1.96,4.01,2.88,6.02.92,2.01,1.96,4.01,2.88,6.01.18-.75.37-1.39.57-1.9,1.66-3.47,5.57-14.65,8.08-14.02,2.02.56,2.5,11.34,1.24,15.02Z"/>
  <path class="cls-3" d="m185.6,115.9c-2.38-2.59-5.18-3.32-7.77-4.04-10.78-2.18-22.7-1.45-31.2,6.63-.52.62-.93,1.14-1.35,1.76-5.39-1.45-10.78-2.8-16.27-4.14-5.7-3.42-11.09-7.57-16.58-12.02-.21-.1-.31-.31-.52-.41,1.97-5.18,3.32-10.78,4.56-16.48,15.86-.31,32.85-15.34,39.18-28.71,5.7-11.71-1.14-25.91-14.41-27.36-4.25-.41-8.08,1.97-10.47,4.66-9.02,10.99-12.23,24.46-17.2,37.31-.62,1.66-1.45,4.04-2.38,6.74-8.19-1.35-14.51-9.33-16.58-18.24l-1.04.1c-.1,6.84,1.87,14.3,7.36,19.79,2.49,2.28,5.29,3.73,8.08,4.56-1.76,4.77-3.52,9.54-4.87,12.85-4.66-2.18-9.95-3.11-15.03-1.24-9.85,2.69-20.11,19.59-7.57,25.18,9.22,2.28,16.27-3.21,23.11-7.88,1.04-.72,1.87-1.55,2.69-2.49,6.01,3.73,12.23,8.71,17.21,10.36,5.29,2.49,10.68,4.15,16.27,5.18,0-.1,0-.21.1-.31.62.21,1.24.41,1.87.73-.72-.1-1.35-.21-1.97-.41-3.11,6.74-4.25,13.89-5.91,20.73-.41,1.76-.72,3.63-1.04,5.49h-6.12c-.72,0-1.35.62-1.35,1.35v4.77c0,.72.62,1.35,1.35,1.35h4.77c-1.76,10.68-3,21.45-5.18,31.82-.52,4.66-7.46,9.43-12.23,8.81-2.49-.31-1.45-7.15.41-8.19,1.35-.93,4.25-1.04,4.77,1.14h1.04c.21-1.55-.83-3.21-2.38-3.83-7.15-3.11-11.92,6.01-10.57,12.02,4.87,13.06,25.6,4.15,28.5-6.84,3.83-10.99,5.08-23.01,6.32-34.93h10.36c.73,0,1.35-.62,1.35-1.35v-4.77c0-.72-.62-1.35-1.35-1.35h-9.53c.93-8.19,1.97-16.27,4.15-23.84,6.84,2.38,13.99,4.25,20.73,2.59,6.84-1.24,23.84-6.94,16.69-17.1Zm-52.44-77.84c4.87-5.08,10.57-2.49,14.51,1.97,10.05,14.41-15.13,33.27-27.16,38.55-.83.41-1.66.73-2.49.83,2.9-14.92,5.7-29.85,15.13-41.35Zm-46.43,76.59c-.1-.1-.1-.31-.31-.83-.31-.73-1.24-1.14-1.24-1.14.72,0,1.66,0,2.59-.21-.31.62-.73,1.35-1.04,2.18Zm1.14-2.18c2.49-4.25,5.91-5.29,9.64-4.56-3.01,2.28-6.63,3.94-9.64,4.56Zm73.58,11.92c-3.32-.83-6.74-1.66-10.16-2.59,14.61-19.28,55.97,3.21,10.16,2.59Z"/>
</svg>